<svg width="214" height="96" viewBox="0 0 214 96" fill="none" xmlns="http://www.w3.org/2000/svg">
<path fill-rule="evenodd" clip-rule="evenodd" d="M184.886 62.8163C184.886 64.4469 184.946 64.6888 185.791 65.1108C188.265 66.3176 191.043 66.7402 193.881 66.7402C197.141 66.7402 200.401 66.0162 202.996 64.2055C207.162 61.2476 208.128 56.6597 208.128 54.1845C208.128 49.3553 206.438 45.6127 199.314 39.9982L197.623 38.6703C191.829 34.143 190.259 31.9697 190.259 28.5286C190.259 24.122 193.519 21.5261 197.684 21.5261C203.238 21.5261 204.867 24.0614 205.229 24.7259C205.592 25.3899 205.953 27.0199 206.014 27.7439C206.075 28.2272 206.134 28.5286 206.496 28.5286C206.798 28.5286 206.919 28.1065 206.919 27.1405C206.919 23.9112 207.068 21.9896 207.132 21.1696C207.149 20.9472 207.16 20.8058 207.16 20.7414C207.16 20.4395 207.04 20.3188 206.557 20.3188C206.074 20.3188 205.591 20.2582 204.444 20.0174C202.935 19.6548 201.184 19.4135 198.83 19.4135C191.163 19.4135 186.334 23.82 186.334 30.2798C186.334 34.3844 187.783 38.1275 194.182 43.3788L196.898 45.6127C202.09 49.8992 203.839 52.3138 203.839 56.479C203.839 60.3422 201.003 64.5075 195.208 64.5075C191.163 64.5075 187.178 62.8163 186.273 58.3497C186.092 57.5045 186.092 56.6599 186.092 56.1165V56.1164C186.092 55.6331 186.032 55.4518 185.67 55.4518C185.368 55.4518 185.247 55.7538 185.187 56.4184C185.175 56.6082 185.156 56.8541 185.134 57.1496C185.041 58.3567 184.886 60.3918 184.886 62.8163ZM88.9966 24.2768C89.1074 26.0453 89.1074 27.5926 89.1074 36.2141H89.1051V45.9401C89.1051 51.2456 89.1051 55.6112 88.8286 57.9329C88.608 59.5357 88.3314 60.7516 87.2263 60.9728C86.7286 61.0836 86.0652 61.1939 85.5681 61.1939C85.2361 61.1939 85.1258 61.3596 85.1258 61.5253C85.1258 61.8573 85.4024 61.9676 86.0104 61.9676C86.395 61.9676 86.8748 61.9439 87.389 61.9184L87.3894 61.9184C87.9834 61.889 88.6234 61.8573 89.216 61.8573C90.3762 61.8019 91.316 61.8019 91.4267 61.8019H91.4268C92.2559 61.8019 93.5822 61.8573 95.7375 61.9676C96.1142 61.9773 96.5179 61.9886 96.9498 62.0008L96.9515 62.0008H96.9517C98.991 62.0582 101.658 62.1333 105.078 62.1333C107.233 62.1333 107.675 62.1333 108.062 60.6968C108.338 59.5357 108.781 55.7781 108.781 55.3358C108.781 54.949 108.781 54.5067 108.449 54.5067C108.173 54.5067 108.062 54.7278 107.951 55.3358C107.565 57.602 106.902 58.7071 105.465 59.3151C104.028 59.9231 101.596 59.9231 100.159 59.9231H100.159C94.7427 59.9231 93.9135 59.2042 93.7478 55.3912C93.7079 54.5559 93.7255 51.0011 93.7384 48.3736V48.3733V48.3731V48.3729V48.3729L93.7385 48.3651L93.7386 48.3428L93.7386 48.3334C93.7436 47.3273 93.7478 46.4609 93.7478 45.9412V41.0774C93.7478 40.8562 93.8581 40.6905 94.1347 40.6905C95.0741 40.6905 100.546 40.8014 102.038 40.9671C104.193 41.1882 104.691 42.1276 104.912 42.9013C105.133 43.6202 105.133 44.1727 105.133 44.7253C105.133 45.0013 105.244 45.2224 105.52 45.2224C105.907 45.2224 105.907 44.615 105.907 44.1727C105.907 43.7859 106.018 41.7414 106.128 40.6357C106.232 39.4947 106.379 38.6999 106.474 38.1834L106.474 38.1833C106.532 37.8745 106.57 37.6652 106.57 37.5409C106.57 37.2089 106.459 37.0987 106.294 37.0987C106.09 37.0987 105.887 37.3322 105.554 37.714L105.554 37.714L105.465 37.8169C104.968 38.3695 104.193 38.4803 102.867 38.5906C101.596 38.7009 94.7987 38.7009 94.0798 38.7009C93.8038 38.7009 93.7484 38.5352 93.7484 38.1483V22.8951C93.7484 22.5082 93.8587 22.3425 94.0798 22.3425C94.6878 22.3425 100.712 22.3979 101.652 22.5082C104.636 22.8396 105.189 23.5025 105.576 24.387C105.852 25.0504 105.907 25.9898 105.907 26.3767C105.907 26.8184 106.018 27.0949 106.349 27.0949C106.57 27.0949 106.681 26.7635 106.736 26.487C106.807 26.0604 106.878 24.9011 106.935 23.9816C106.966 23.4723 106.993 23.0366 107.013 22.8396C107.111 21.9237 107.248 21.3175 107.343 20.8951L107.343 20.8949C107.409 20.6037 107.455 20.3999 107.455 20.242C107.455 19.966 107.399 19.7449 107.234 19.7449C107.079 19.7449 106.941 19.8148 106.801 19.8859C106.692 19.9412 106.581 19.9972 106.46 20.0215C106.018 20.1317 105.134 20.2426 104.084 20.298C102.813 20.3534 91.8148 20.3534 91.4279 20.3534L89.1623 20.2426C87.9463 20.1872 86.4544 20.1872 85.183 20.1872C84.5756 20.1872 84.299 20.298 84.299 20.6294C84.299 20.8506 84.5201 20.9608 84.7413 20.9608C85.2384 20.9608 86.1778 21.0163 86.6201 21.1265C88.444 21.5134 88.8863 22.398 88.9966 24.2768ZM128.678 58.7071C127.683 57.7123 127.462 54.1752 127.462 46.0515H127.461V36.2135C127.461 27.592 127.461 26.0447 127.571 24.2762C127.682 22.3419 128.124 21.4025 129.726 21.126C130.389 21.0157 131.163 20.9602 131.55 20.9602C131.771 20.9602 131.992 20.85 131.992 20.6288C131.992 20.2974 131.716 20.1866 131.108 20.1866C129.931 20.1866 127.554 20.2704 126.177 20.319L126.177 20.3191C125.615 20.3389 125.219 20.3528 125.139 20.3528C125.071 20.3528 124.801 20.3425 124.398 20.3269L124.398 20.3269C123.186 20.2801 120.76 20.1866 118.895 20.1866C118.287 20.1866 118.011 20.2974 118.011 20.6288C118.011 20.85 118.232 20.9602 118.453 20.9602C118.95 20.9602 119.889 21.0157 120.332 21.126C122.156 21.5128 122.598 22.3974 122.708 24.2762C122.818 26.0444 122.818 27.5916 122.818 36.2099V36.2135V45.9406C122.818 51.2462 122.818 55.6118 122.542 57.9334C122.321 59.5362 122.045 60.7522 120.94 60.9733C120.442 61.0842 119.778 61.1945 119.281 61.1945C118.949 61.1945 118.839 61.3602 118.839 61.5259C118.839 61.8579 119.115 61.9682 119.723 61.9682C120.552 61.9682 121.768 61.9133 122.873 61.8579C123.637 61.8579 124.322 61.8314 124.745 61.8151C124.934 61.8077 125.071 61.8024 125.139 61.8024C126.742 61.8024 128.455 61.8579 130.777 61.9682C131.286 61.9803 131.822 61.9951 132.39 62.0108C134.412 62.0667 136.845 62.1339 139.951 62.1339C142.88 62.1339 143.046 61.9127 143.433 60.6419C143.875 59.0391 144.262 55.7232 144.262 55.1152C144.262 54.5072 144.207 54.2861 143.93 54.2861C143.599 54.2861 143.489 54.5621 143.433 55.0044C143.268 56.054 142.715 57.4363 141.997 58.3203C140.67 59.9225 138.239 59.9779 135.309 59.9779C130.999 59.9779 129.562 59.5911 128.678 58.7071ZM155.539 36.2141C155.539 27.5926 155.539 26.0453 155.428 24.2768C155.318 22.398 154.876 21.5134 153.052 21.1265C152.61 21.0163 151.67 20.9608 151.173 20.9608C150.951 20.9608 150.73 20.8506 150.73 20.6294C150.73 20.298 151.007 20.1872 151.615 20.1872C152.886 20.1872 154.377 20.1872 155.594 20.2426L157.86 20.3534C158.247 20.3534 169.245 20.3534 170.516 20.298C171.566 20.2426 172.451 20.1317 172.892 20.0215C173.013 19.9972 173.124 19.9412 173.233 19.8859C173.373 19.8149 173.51 19.7449 173.666 19.7449C173.832 19.7449 173.887 19.966 173.887 20.242C173.887 20.3999 173.841 20.6038 173.775 20.8951V20.8952C173.68 21.3176 173.543 21.9238 173.445 22.8396C173.425 23.0366 173.398 23.4724 173.367 23.9817C173.311 24.9012 173.24 26.0604 173.168 26.487C173.113 26.7635 173.003 27.0949 172.781 27.0949C172.45 27.0949 172.339 26.8184 172.339 26.3767C172.339 25.9898 172.284 25.0504 172.007 24.387C171.62 23.5025 171.068 22.8396 168.083 22.5082C167.144 22.3979 161.12 22.3425 160.512 22.3425C160.291 22.3425 160.181 22.5082 160.181 22.8951V38.1483C160.181 38.5352 160.236 38.7009 160.512 38.7009C161.23 38.7009 168.028 38.7009 169.3 38.5906C170.626 38.4803 171.4 38.3695 171.897 37.8169L171.988 37.7125C172.32 37.3316 172.523 37.0987 172.727 37.0987C172.892 37.0987 173.003 37.2089 173.003 37.5409C173.003 37.6652 172.964 37.8745 172.907 38.1834C172.812 38.6999 172.665 39.4947 172.561 40.6357C172.451 41.7414 172.34 43.7859 172.34 44.1727C172.34 44.615 172.34 45.2224 171.952 45.2224C171.676 45.2224 171.566 45.0013 171.566 44.7253C171.566 44.1727 171.566 43.6202 171.344 42.9013C171.123 42.1276 170.626 41.1882 168.47 40.9671C166.978 40.8014 161.506 40.6905 160.567 40.6905C160.29 40.6905 160.18 40.8562 160.18 41.0774V45.9412C160.18 46.4677 160.176 47.35 160.171 48.3729V48.3762V48.3786V48.3798C160.158 51.0067 160.14 54.5566 160.18 55.3912C160.346 59.2042 161.175 59.9231 166.591 59.9231C168.028 59.9231 170.46 59.9231 171.896 59.3151C173.333 58.7071 173.997 57.602 174.384 55.3358C174.494 54.7278 174.605 54.5067 174.881 54.5067C175.212 54.5067 175.212 54.949 175.212 55.3358C175.212 55.7781 174.77 59.5357 174.494 60.6968C174.107 62.1333 173.665 62.1333 171.51 62.1333C168.089 62.1333 165.422 62.0582 163.383 62.0008C162.951 61.9887 162.547 61.9773 162.17 61.9676C160.014 61.8573 158.688 61.8019 157.859 61.8019C157.748 61.8019 156.809 61.8019 155.648 61.8573C155.056 61.8573 154.416 61.889 153.822 61.9184C153.308 61.9438 152.827 61.9676 152.443 61.9676C151.835 61.9676 151.559 61.8573 151.559 61.5253C151.559 61.3596 151.669 61.1939 152.001 61.1939C152.498 61.1939 153.161 61.0836 153.659 60.9728C154.764 60.7516 155.041 59.5357 155.261 57.9329C155.538 55.6112 155.538 51.2456 155.538 45.9401V36.2141H155.539ZM46.6082 48.7222C47.0071 47.7682 48.3631 47.7775 48.7468 48.7377L54.5183 63.1778L54.6604 63.5371C55.6984 66.1634 56.0064 66.9429 56.7042 66.9429C57.1641 66.9429 57.4151 66.3848 58.2497 64.5288C58.5165 63.9357 58.8428 63.2101 59.2545 62.3279C60.5861 59.4907 63.1317 53.3975 66.5759 45.1532L67.0873 43.9291C67.7835 42.2501 68.4765 40.5804 69.1403 38.9813L69.1626 38.9277L69.1636 38.9253L69.1638 38.9247C69.2514 38.7137 69.0963 38.4815 68.8679 38.4815H66.8967C66.4181 38.4815 65.9892 38.7766 65.8178 39.2235C63.5533 45.1302 61.019 51.5578 59.1529 56.0522C58.7545 57.0117 57.4 56.9791 57.0352 56.0063L50.7446 39.2308C50.5755 38.7801 50.1447 38.4815 49.6633 38.4815H46.3528C45.536 38.4815 44.9773 39.3063 45.2805 40.0648L45.9961 41.8553C46.1045 42.1265 46.1061 42.4286 46.0005 42.7009C44.1194 47.5502 42.1812 52.4287 40.677 56.0514C40.2786 57.0109 38.9238 56.9791 38.559 56.0063L27.9051 27.5949L27.8613 27.4811C26.9713 25.1663 26.2659 23.3316 26.2659 22.555C26.2659 22.1294 26.3871 21.6439 27.0552 21.3402L27.1713 21.2883C27.6175 21.0883 27.7331 21.0365 28.3502 21.0365C28.7758 21.0365 28.9576 20.9152 28.9576 20.6115C28.9576 20.3084 28.4114 20.1866 27.3184 20.1866C25.7929 20.1866 24.5242 20.2663 23.6641 20.3203C23.2231 20.3481 22.8895 20.369 22.6838 20.369C22.4407 20.369 21.8939 20.3487 21.165 20.3217C19.7075 20.2676 17.5218 20.1866 15.5785 20.1866C14.6074 20.1866 14 20.2472 14 20.6115C14 20.8546 14.1213 21.0365 14.4856 21.0365H14.4856C14.85 21.0365 15.8817 21.0365 16.7928 21.2795C18.9181 21.8864 19.8292 22.5544 21.1647 25.9546L36.0421 63.1778L36.1842 63.5371C37.2222 66.1634 37.5302 66.9429 38.228 66.9429C38.6879 66.9429 38.9389 66.3848 39.7735 64.5288C40.0403 63.9358 40.3666 63.2101 40.7784 62.3279C41.9097 59.9173 43.9175 55.1562 46.6082 48.7222ZM73.8883 27.4731C73.569 28.2855 72.7088 30.3743 71.5596 33.1491C71.3809 33.5806 70.9596 33.8624 70.4926 33.8624L70.0654 33.8624L67.8524 33.8624L57.6038 33.8624L48.7315 33.8624L45.1422 33.8624L43.5836 33.8624C43.1113 33.8624 42.6866 33.5748 42.5113 33.1362L39.6409 25.9546C38.3054 22.5544 37.3943 21.8864 35.269 21.2796C34.3579 21.0365 33.3261 21.0365 32.9618 21.0365H32.9618C32.5974 21.0365 32.4762 20.8546 32.4762 20.6115C32.4762 20.2472 33.0836 20.1866 34.0547 20.1866C35.998 20.1866 38.1837 20.2676 39.6412 20.3217L39.6412 20.3217L39.6412 20.3217C40.3701 20.3487 40.9169 20.369 41.16 20.369C41.3657 20.369 41.6993 20.3481 42.1403 20.3203C43.0004 20.2663 44.2691 20.1866 45.7946 20.1866C46.8876 20.1866 47.4338 20.3084 47.4338 20.6115C47.4338 20.9152 47.2519 21.0365 46.8264 21.0365C46.2093 21.0365 46.0937 21.0883 45.6475 21.2883L45.5313 21.3402C44.8633 21.6439 44.7421 22.1295 44.7421 22.555C44.7421 23.3316 45.4475 25.1664 46.3375 27.4812L46.3812 27.5949L47.801 31.381C47.97 31.8317 48.4008 32.1303 48.8822 32.1303H67.6965C68.1791 32.1303 68.6111 31.8297 68.7785 31.377C69.8624 28.4456 70.6836 26.1339 71.0348 24.9846C71.338 24.0729 71.581 23.223 71.581 22.6768C71.581 22.1912 71.3992 21.5833 70.7918 21.2801C70.0631 21.0371 69.4049 21.037 68.7374 21.037C68.3731 21.037 68.0688 20.9764 68.0688 20.6727C68.0688 20.3084 68.4332 20.1866 69.4049 20.1866C70.9743 20.1866 72.5903 20.2627 73.734 20.3167C74.3604 20.3462 74.8452 20.369 75.1031 20.369C75.2167 20.369 75.5498 20.3512 76.0079 20.3267C77.0158 20.2728 78.6286 20.1866 79.8393 20.1866C80.5073 20.1866 80.8717 20.3084 80.8717 20.6115C80.8717 20.9152 80.6292 21.0365 80.143 21.0365C79.7181 21.0365 78.382 21.0365 77.2284 21.7651C76.4391 22.3113 75.528 23.3437 73.8883 27.4731ZM67.1837 73.5087C67.2761 73.6057 67.4101 73.6542 67.5856 73.6542C67.9412 73.6542 68.1191 73.4694 68.1191 73.0999V71.5617H70.3917V73.0999C70.3917 73.2754 70.4378 73.4117 70.5302 73.5087C70.6226 73.6057 70.7542 73.6542 70.9252 73.6542C71.1007 73.6542 71.2346 73.6057 71.327 73.5087C71.4194 73.4117 71.4656 73.2754 71.4656 73.0999V69.1991C71.4656 68.8296 71.2854 68.6448 70.9252 68.6448C70.5695 68.6448 70.3917 68.8296 70.3917 69.1991V70.6679H68.1191V69.1991C68.1191 68.8296 67.9412 68.6448 67.5856 68.6448C67.2253 68.6448 67.0452 68.8296 67.0452 69.1991V73.0999C67.0452 73.2754 67.0913 73.4117 67.1837 73.5087ZM74.0449 73.5087C74.1373 73.6057 74.2712 73.6542 74.4468 73.6542C74.8024 73.6542 74.9803 73.4694 74.9803 73.0999V69.1991C74.9803 68.8296 74.8024 68.6448 74.4468 68.6448C74.0865 68.6448 73.9063 68.8296 73.9063 69.1991V73.0999C73.9063 73.2754 73.9525 73.4117 74.0449 73.5087ZM77.5568 73.4532C77.6492 73.5456 77.7855 73.5918 77.9656 73.5918H80.349C80.6585 73.5918 80.8133 73.4394 80.8133 73.1345C80.8133 72.8343 80.6585 72.6842 80.349 72.6842H78.4922V69.2407C78.4922 68.8758 78.3144 68.6933 77.9587 68.6933C77.7832 68.6933 77.6492 68.7418 77.5568 68.8388C77.4644 68.9312 77.4183 69.0651 77.4183 69.2407V73.0444C77.4183 73.22 77.4644 73.3562 77.5568 73.4532ZM82.9836 73.5087C83.0806 73.6057 83.2168 73.6542 83.3924 73.6542C83.7434 73.6542 83.9189 73.4648 83.9189 73.086V71.5756H85.6234C85.9097 71.5756 86.0529 71.4347 86.0529 71.1529C86.0529 70.8758 85.9097 70.7372 85.6234 70.7372H83.9189V69.5455H85.7758C86.0576 69.5455 86.1984 69.4046 86.1984 69.1229C86.1984 68.8457 86.0576 68.7072 85.7758 68.7072H83.4062C83.0321 68.7072 82.845 68.8942 82.845 69.2684V73.086C82.845 73.2708 82.8912 73.4117 82.9836 73.5087ZM88.2515 73.0306C88.2515 73.4047 88.4385 73.5918 88.8127 73.5918H91.2307C91.5125 73.5918 91.6534 73.4509 91.6534 73.1692C91.6534 72.892 91.5125 72.7534 91.2307 72.7534H89.2769V71.534H91.0714C91.3578 71.534 91.501 71.3931 91.501 71.1114C91.501 70.8296 91.3578 70.6887 91.0714 70.6887H89.2769V69.5455H91.2307C91.5125 69.5455 91.6534 69.4046 91.6534 69.1229C91.6534 68.8457 91.5125 68.7072 91.2307 68.7072H88.8127C88.4385 68.7072 88.2515 68.8942 88.2515 69.2684V73.0306ZM97.4302 73.5087C97.5272 73.6057 97.6635 73.6542 97.839 73.6542C98.19 73.6542 98.3655 73.4648 98.3655 73.086V71.5756H100.07C100.356 71.5756 100.5 71.4347 100.5 71.1529C100.5 70.8758 100.356 70.7372 100.07 70.7372H98.3655V69.5455H100.222C100.504 69.5455 100.645 69.4046 100.645 69.1229C100.645 68.8457 100.504 68.7072 100.222 68.7072H97.8528C97.4787 68.7072 97.2916 68.8942 97.2916 69.2684V73.086C97.2916 73.2708 97.3378 73.4117 97.4302 73.5087ZM103.204 73.1345C103.569 73.4902 104.098 73.668 104.79 73.668C105.483 73.668 106.008 73.4902 106.363 73.1345C106.719 72.7789 106.897 72.25 106.897 71.5479V69.1922C106.897 69.0166 106.851 68.8827 106.758 68.7903C106.67 68.6933 106.541 68.6448 106.37 68.6448C106.015 68.6448 105.837 68.8273 105.837 69.1922V71.5548C105.837 72.3539 105.488 72.7534 104.79 72.7534C104.449 72.7534 104.188 72.6541 104.008 72.4555C103.827 72.2523 103.737 71.952 103.737 71.5548V69.1922C103.737 68.8273 103.56 68.6448 103.204 68.6448C103.028 68.6448 102.894 68.6933 102.802 68.7903C102.71 68.8827 102.663 69.0166 102.663 69.1922V71.5479C102.663 72.25 102.844 72.7789 103.204 73.1345ZM104.984 67.7233C104.984 68.0513 105.148 68.2152 105.476 68.2152C105.8 68.2152 105.961 68.0513 105.961 67.7233C105.961 67.4 105.8 67.2383 105.476 67.2383C105.148 67.2383 104.984 67.4 104.984 67.7233ZM103.744 68.0905C103.832 68.1737 103.954 68.2152 104.111 68.2152C104.435 68.2152 104.596 68.0513 104.596 67.7233C104.596 67.4 104.435 67.2383 104.111 67.2383C103.954 67.2383 103.832 67.2799 103.744 67.363C103.661 67.4462 103.62 67.5663 103.62 67.7233C103.62 67.8804 103.661 68.0028 103.744 68.0905ZM109.441 73.5087C109.533 73.6057 109.667 73.6542 109.843 73.6542C110.018 73.6542 110.15 73.6057 110.237 73.5087C110.33 73.4117 110.376 73.2754 110.376 73.0999V71.7003H110.903C111.041 71.7003 111.161 71.7234 111.263 71.7696C111.365 71.8158 111.45 71.9035 111.519 72.0329L112.184 73.2592C112.254 73.3932 112.337 73.4925 112.434 73.5572C112.531 73.6218 112.656 73.6542 112.808 73.6542C113.039 73.6542 113.184 73.5803 113.244 73.4324C113.305 73.28 113.286 73.116 113.189 72.9405L112.759 72.1437C112.602 71.862 112.402 71.6841 112.157 71.6102C112.503 71.5225 112.769 71.3585 112.953 71.1183C113.143 70.8735 113.238 70.5686 113.238 70.2037C113.238 69.7326 113.09 69.3654 112.794 69.1021C112.499 68.8388 112.078 68.7072 111.533 68.7072H109.849C109.485 68.7072 109.302 68.8896 109.302 69.2545V73.0999C109.302 73.2754 109.348 73.4117 109.441 73.5087ZM111.339 70.9243H110.376V69.5455H111.339C111.917 69.5455 112.205 69.7742 112.205 70.2314C112.205 70.6934 111.917 70.9243 111.339 70.9243ZM118.972 73.0306C118.972 73.4047 119.159 73.5918 119.533 73.5918H120.884C121.715 73.5918 122.36 73.3793 122.817 72.9544C123.274 72.5294 123.503 71.9266 123.503 71.146C123.503 70.3654 123.274 69.7649 122.817 69.3446C122.36 68.9196 121.715 68.7072 120.884 68.7072H119.533C119.159 68.7072 118.972 68.8942 118.972 69.2684V73.0306ZM120.821 72.7119H120.045V69.5871H120.821C121.861 69.5871 122.38 70.1067 122.38 71.146C122.38 72.1899 121.861 72.7119 120.821 72.7119ZM125.931 73.5087C126.023 73.6057 126.157 73.6542 126.333 73.6542C126.688 73.6542 126.866 73.4694 126.866 73.0999V69.1991C126.866 68.8296 126.688 68.6448 126.333 68.6448C125.972 68.6448 125.792 68.8296 125.792 69.1991V73.0999C125.792 73.2754 125.838 73.4117 125.931 73.5087ZM129.304 73.0306C129.304 73.4047 129.491 73.5918 129.865 73.5918H132.283C132.565 73.5918 132.706 73.4509 132.706 73.1692C132.706 72.892 132.565 72.7534 132.283 72.7534H130.329V71.534H132.124C132.41 71.534 132.554 71.3931 132.554 71.1114C132.554 70.8296 132.41 70.6887 132.124 70.6887H130.329V69.5455H132.283C132.565 69.5455 132.706 69.4046 132.706 69.1229C132.706 68.8457 132.565 68.7072 132.283 68.7072H129.865C129.491 68.7072 129.304 68.8942 129.304 69.2684V73.0306ZM138.85 73.1345C139.215 73.4902 139.744 73.668 140.437 73.668C141.13 73.668 141.654 73.4902 142.009 73.1345C142.365 72.7789 142.543 72.25 142.543 71.5479V69.1922C142.543 69.0166 142.497 68.8827 142.404 68.7903C142.317 68.6933 142.187 68.6448 142.016 68.6448C141.661 68.6448 141.483 68.8273 141.483 69.1922V71.5548C141.483 72.3539 141.134 72.7534 140.437 72.7534C140.095 72.7534 139.834 72.6541 139.654 72.4555C139.474 72.2523 139.384 71.952 139.384 71.5548V69.1922C139.384 68.8273 139.206 68.6448 138.85 68.6448C138.674 68.6448 138.541 68.6933 138.448 68.7903C138.356 68.8827 138.31 69.0166 138.31 69.1922V71.5479C138.31 72.25 138.49 72.7789 138.85 73.1345ZM145.087 73.5087C145.179 73.6057 145.313 73.6542 145.489 73.6542C145.664 73.6542 145.796 73.6057 145.884 73.5087C145.976 73.4117 146.022 73.2754 146.022 73.0999V71.3608H146.036L147.907 73.3285C148.004 73.4348 148.092 73.5156 148.17 73.571C148.253 73.6264 148.362 73.6542 148.496 73.6542C148.653 73.6542 148.771 73.6149 148.849 73.5364C148.932 73.4532 148.971 73.3516 148.967 73.2315C148.967 73.1114 148.914 72.9936 148.807 72.8782L147.082 71.0421L148.71 69.3792C148.803 69.2868 148.854 69.1852 148.863 69.0744C148.872 68.9589 148.84 68.8596 148.766 68.7764C148.692 68.6933 148.577 68.6517 148.419 68.6517C148.309 68.6517 148.209 68.6748 148.122 68.721C148.038 68.7626 147.958 68.8249 147.879 68.9081L146.036 70.8342H146.022V69.1922C146.022 68.8273 145.844 68.6448 145.489 68.6448C145.313 68.6448 145.179 68.6933 145.087 68.7903C144.994 68.8827 144.948 69.0166 144.948 69.1922V73.0999C144.948 73.2754 144.994 73.4117 145.087 73.5087ZM151.312 73.5087C151.404 73.6057 151.538 73.6542 151.714 73.6542C151.889 73.6542 152.021 73.6057 152.109 73.5087C152.201 73.4117 152.247 73.2754 152.247 73.0999V71.7003H152.774C152.913 71.7003 153.033 71.7234 153.134 71.7696C153.236 71.8158 153.321 71.9035 153.391 72.0329L154.056 73.2592C154.125 73.3932 154.208 73.4925 154.305 73.5572C154.402 73.6218 154.527 73.6542 154.679 73.6542C154.91 73.6542 155.056 73.5803 155.116 73.4324C155.176 73.28 155.157 73.116 155.06 72.9405L154.631 72.1437C154.474 71.862 154.273 71.6841 154.028 71.6102C154.374 71.5225 154.64 71.3585 154.825 71.1183C155.014 70.8735 155.109 70.5686 155.109 70.2037C155.109 69.7326 154.961 69.3654 154.665 69.1021C154.37 68.8388 153.949 68.7072 153.404 68.7072H151.721C151.356 68.7072 151.173 68.8896 151.173 69.2545V73.0999C151.173 73.2754 151.22 73.4117 151.312 73.5087ZM153.21 70.9243H152.247V69.5455H153.21C153.788 69.5455 154.077 69.7742 154.077 70.2314C154.077 70.6934 153.788 70.9243 153.21 70.9243ZM157.081 73.4602C157.164 73.5895 157.303 73.6542 157.497 73.6542C157.64 73.6542 157.751 73.6195 157.829 73.5502C157.908 73.4763 157.982 73.3585 158.051 73.1969L158.335 72.5317H160.614L160.905 73.1969C160.97 73.3539 161.044 73.4694 161.127 73.5433C161.215 73.6172 161.337 73.6542 161.494 73.6542C161.674 73.6542 161.804 73.5918 161.882 73.4671C161.965 73.3378 161.963 73.1761 161.875 72.9821L160.088 69.0952C160.019 68.9381 159.933 68.8249 159.832 68.7557C159.73 68.6818 159.612 68.6448 159.478 68.6448C159.344 68.6448 159.226 68.6818 159.125 68.7557C159.023 68.8249 158.935 68.9381 158.862 69.0952L157.088 72.9821C157 73.1715 156.998 73.3308 157.081 73.4602ZM158.695 71.6934L159.464 69.8504H159.478L160.261 71.6934H158.695ZM164.168 73.5087C164.261 73.6057 164.395 73.6542 164.57 73.6542C164.926 73.6542 165.104 73.4694 165.104 73.0999V69.1991C165.104 68.8296 164.926 68.6448 164.57 68.6448C164.21 68.6448 164.03 68.8296 164.03 69.1991V73.0999C164.03 73.2754 164.076 73.4117 164.168 73.5087ZM167.542 73.1345C167.542 73.4809 167.708 73.6542 168.041 73.6542C168.373 73.6542 168.539 73.4809 168.539 73.1345V70.4739L170.784 73.3354C170.872 73.4463 170.953 73.5271 171.027 73.5779C171.105 73.6288 171.209 73.6542 171.339 73.6542C171.472 73.6542 171.579 73.6103 171.657 73.5225C171.736 73.4301 171.775 73.3077 171.775 73.1553V69.1575C171.775 68.8157 171.609 68.6448 171.276 68.6448C170.944 68.6448 170.777 68.8157 170.777 69.1575V71.8181L168.532 68.9566C168.445 68.8457 168.366 68.7672 168.297 68.721C168.228 68.6702 168.133 68.6448 168.013 68.6448C167.87 68.6448 167.754 68.691 167.666 68.7834C167.583 68.8758 167.542 69.0097 167.542 69.1852V73.1345ZM174.213 73.0306C174.213 73.4047 174.4 73.5918 174.775 73.5918H177.193C177.474 73.5918 177.615 73.4509 177.615 73.1692C177.615 72.892 177.474 72.7534 177.193 72.7534H175.239V71.534H177.033C177.32 71.534 177.463 71.3931 177.463 71.1114C177.463 70.8296 177.32 70.6887 177.033 70.6887H175.239V69.5455H177.193C177.474 69.5455 177.615 69.4046 177.615 69.1229C177.615 68.8457 177.474 68.7072 177.193 68.7072H174.775C174.4 68.7072 174.213 68.8942 174.213 69.2684V73.0306Z" fill="#231F20"/>
<rect x="86.1726" y="83.3214" width="62.3571" height="3.46429" fill="#245EAC"/>
<rect x="86.1726" y="86.7857" width="62.3571" height="4.04167" fill="#FED600"/>
</svg>
