<svg width="831" height="623" viewBox="0 0 831 623" fill="none" xmlns="http://www.w3.org/2000/svg">
<mask id="mask0_15_519" style="mask-type:alpha" maskUnits="userSpaceOnUse" x="54" y="0" width="716" height="623">
<path fill-rule="evenodd" clip-rule="evenodd" d="M114.512 59.8733C187.194 -11.9578 305.036 -11.9578 377.718 59.8733L412 93.7536L446.282 59.8733C518.964 -11.9578 636.806 -11.9578 709.488 59.8733C782.171 131.704 782.171 248.165 709.488 319.996L412 614L114.512 319.996C41.8294 248.165 41.8294 131.704 114.512 59.8733Z" fill="#FF8577" stroke="white" stroke-width="12"/>
</mask>
<g mask="url(#mask0_15_519)">
<g clip-path="url(#clip0_15_519)">
<rect x="412" y="-96" width="412" height="339" fill="#245EAC"/>
<rect x="412" y="243" width="412" height="508" fill="#FED600"/>
<path d="M0 -96H206H412V223H0V-96Z" fill="#010101"/>
<rect y="223" width="412" height="93" fill="#DC0000"/>
<rect y="316" width="412" height="393" fill="#FECE00"/>
</g>
<path d="M393.5 343L329 333.5V322.889C314.5 291.389 272.756 224.5 202.5 224.5C110.5 224.5 80.9997 187.389 13.4997 177.889C13.4997 177.889 0.000325527 201 0 249C-0.000325515 297 13.4997 315 13.4997 315C13.4997 315 90 344.108 188.5 369.889C244.654 384.587 298.5 400.722 329 419.389C359.5 438.056 400.2 473.389 429 475.389C457.8 477.389 466 456.889 476.5 439.889L490.5 419.389L509.5 402.889C509.5 402.889 525 388.389 536 379.5C547 370.611 554 367 567.5 352C581 337 597 322.889 597 322.889C597 322.889 620.5 291.5 607 269.889C593.5 248.278 525.5 193.389 525.5 193.389C511.5 181.389 483.7 157.689 466.5 158.889C450.629 159.996 452.89 167.229 451 171.889C450.329 173.542 451 174.889 451 177.889C425 175.089 429.166 197.389 434.5 208.889L490.5 274.889L483.5 307.389L474 322.889L434.5 343H393.5Z" fill="#DC0000"/>
<path d="M329 333.5H327V335.227L328.708 335.479L329 333.5ZM393.5 343L393.208 344.979L393.353 345H393.5V343ZM434.5 343V345H434.979L435.407 344.782L434.5 343ZM474 322.889L474.907 324.671L475.41 324.415L475.705 323.934L474 322.889ZM483.5 307.389L485.205 308.434L485.383 308.144L485.455 307.81L483.5 307.389ZM490.5 274.889L492.455 275.31L492.662 274.347L492.025 273.595L490.5 274.889ZM434.5 208.889L432.685 209.731L432.799 209.976L432.975 210.183L434.5 208.889ZM451 177.889L450.785 179.878L453 180.116V177.889H451ZM466.5 158.889L466.639 160.884L466.5 158.889ZM525.5 193.389L524.198 194.908L524.22 194.927L524.243 194.945L525.5 193.389ZM509.5 402.889L510.811 404.399L510.839 404.375L510.866 404.35L509.5 402.889ZM476.5 439.889L474.848 438.761L474.822 438.799L474.798 438.838L476.5 439.889ZM329 419.389L330.044 417.683L329 419.389ZM188.5 369.889L189.006 367.954L188.5 369.889ZM14.7153 313.132C13.6838 312.737 12.5274 313.253 12.1323 314.285C11.7372 315.316 12.2532 316.473 13.2847 316.868L14.7153 313.132ZM329 322.889H331V322.451L330.816 322.053L329 322.889ZM597 322.889L598.323 324.389L598.477 324.253L598.601 324.088L597 322.889ZM490.5 419.389L489.188 417.879L488.993 418.048L488.848 418.261L490.5 419.389ZM451 171.889L452.853 172.641L451 171.889ZM328.708 335.479L393.208 344.979L393.791 341.021L329.291 331.521L328.708 335.479ZM393.5 345H434.5V341H393.5V345ZM435.407 344.782L474.907 324.671L473.092 321.107L433.592 341.218L435.407 344.782ZM475.705 323.934L485.205 308.434L481.794 306.344L472.294 321.844L475.705 323.934ZM485.455 307.81L492.455 275.31L488.544 274.468L481.544 306.968L485.455 307.81ZM492.025 273.595L436.025 207.595L432.975 210.183L488.975 276.183L492.025 273.595ZM436.314 208.048C433.707 202.427 431.558 194.483 432.948 188.477C433.62 185.573 435.095 183.204 437.719 181.657C440.398 180.077 444.531 179.204 450.785 179.878L451.214 175.901C444.468 175.174 439.372 176.039 435.687 178.212C431.946 180.418 429.921 183.817 429.051 187.576C427.357 194.895 429.958 203.851 432.685 209.731L436.314 208.048ZM466.639 160.884C470.483 160.616 475.105 161.739 480.22 163.925C485.307 166.099 490.718 169.251 496.086 172.85C506.824 180.05 517.19 188.901 524.198 194.908L526.801 191.871C519.809 185.877 509.275 176.878 498.313 169.528C492.832 165.852 487.192 162.554 481.792 160.247C476.419 157.951 471.116 156.562 466.36 156.894L466.639 160.884ZM525.5 193.389C524.243 194.945 524.244 194.945 524.244 194.946C524.245 194.946 524.245 194.947 524.246 194.948C524.248 194.949 524.251 194.952 524.255 194.955C524.263 194.961 524.275 194.971 524.292 194.984C524.324 195.01 524.372 195.05 524.437 195.102C524.565 195.205 524.756 195.36 525.005 195.563C525.505 195.969 526.24 196.568 527.181 197.338C529.063 198.878 531.768 201.102 535.056 203.84C541.633 209.316 550.54 216.841 559.867 225.037C569.196 233.237 578.929 242.095 587.163 250.241C595.439 258.428 602.065 265.765 605.303 270.949L608.696 268.83C605.184 263.208 598.248 255.58 589.977 247.397C581.664 239.173 571.865 230.257 562.507 222.033C553.146 213.806 544.21 206.257 537.615 200.766C534.317 198.02 531.604 195.788 529.714 194.242C528.77 193.469 528.031 192.867 527.528 192.458C527.276 192.254 527.084 192.098 526.954 191.993C526.889 191.94 526.839 191.9 526.806 191.874C526.79 191.86 526.777 191.85 526.769 191.843C526.765 191.84 526.761 191.837 526.759 191.836C526.758 191.835 526.757 191.834 526.757 191.834C526.756 191.833 526.756 191.833 525.5 193.389ZM474.798 438.838C469.41 447.561 464.94 456.571 458.194 463.354C451.628 469.955 442.941 474.353 429.138 473.394L428.861 477.384C443.858 478.426 453.671 473.574 461.03 466.175C468.209 458.957 473.089 449.217 478.201 440.94L474.798 438.838ZM429.138 473.394C422.284 472.918 414.594 470.444 406.358 466.607C398.137 462.779 389.485 457.648 380.726 451.962C371.967 446.276 363.153 440.07 354.586 434.093C346.037 428.128 337.727 422.386 330.044 417.683L327.956 421.095C335.522 425.726 343.737 431.401 352.297 437.373C360.84 443.333 369.719 449.586 378.548 455.317C387.376 461.047 396.206 466.291 404.669 470.233C413.117 474.168 421.315 476.86 428.861 477.384L429.138 473.394ZM330.044 417.683C299.246 398.834 245.097 382.635 189.006 367.954L187.993 371.824C244.21 386.538 297.753 402.611 327.956 421.095L330.044 417.683ZM189.006 367.954C139.81 355.078 96.2298 341.37 64.9483 330.88C49.3084 325.636 36.745 321.197 28.0939 318.07C23.7684 316.507 20.4211 315.271 18.1565 314.427C17.0242 314.005 16.1626 313.681 15.5847 313.462C15.2958 313.353 15.0777 313.27 14.9323 313.215C14.8596 313.187 14.805 313.167 14.7688 313.153C14.7507 313.146 14.7371 313.141 14.7282 313.137C14.7238 313.136 14.7205 313.134 14.7183 313.133C14.7172 313.133 14.7165 313.133 14.716 313.133C14.7155 313.132 14.7153 313.132 14 315C13.2847 316.868 13.2851 316.868 13.2858 316.868C13.2864 316.868 13.2874 316.869 13.2886 316.869C13.2911 316.87 13.2948 316.872 13.2996 316.873C13.3091 316.877 13.3233 316.882 13.3421 316.89C13.3797 316.904 13.4357 316.925 13.5097 316.954C13.6579 317.01 13.8787 317.094 14.1704 317.204C14.7539 317.425 15.6213 317.751 16.7595 318.175C19.0359 319.024 22.3956 320.264 26.7342 321.832C35.4112 324.968 48.0041 329.418 63.6766 334.673C95.0199 345.183 138.689 358.919 187.993 371.824L189.006 367.954ZM14.7213 175.48C48.1326 180.183 71.6795 192.771 98.7736 204.4C125.863 216.028 156.14 226.5 202.5 226.5V222.5C156.86 222.5 127.137 212.222 100.351 200.725C73.5705 189.229 49.3674 176.317 15.2787 171.52L14.7213 175.48ZM202.5 226.5C236.941 226.5 264.465 242.884 285.257 263.309C306.06 283.746 319.997 308.115 327.183 323.725L330.816 322.053C323.502 306.163 309.317 281.338 288.06 260.455C266.791 239.561 238.315 222.5 202.5 222.5V226.5ZM327 322.889V333.5H331V322.889H327ZM605.303 270.949C611.525 280.908 609.333 293.352 605.203 303.755C603.162 308.896 600.704 313.393 598.751 316.609C597.776 318.214 596.931 319.494 596.332 320.369C596.033 320.806 595.796 321.141 595.636 321.365C595.555 321.477 595.494 321.561 595.454 321.615C595.434 321.643 595.419 321.663 595.41 321.675C595.405 321.682 595.402 321.686 595.4 321.689C595.399 321.69 595.398 321.691 595.398 321.691C595.398 321.691 595.398 321.691 595.398 321.691C595.398 321.691 595.399 321.69 597 322.889C598.601 324.088 598.601 324.087 598.602 324.086C598.602 324.086 598.603 324.085 598.603 324.084C598.604 324.083 598.606 324.081 598.608 324.078C598.612 324.073 598.617 324.066 598.623 324.057C598.637 324.039 598.655 324.014 598.679 323.981C598.727 323.916 598.796 323.821 598.885 323.698C599.062 323.451 599.317 323.091 599.634 322.628C600.268 321.701 601.153 320.36 602.17 318.685C604.202 315.34 606.774 310.639 608.921 305.231C613.166 294.537 615.974 280.481 608.696 268.83L605.303 270.949ZM597 322.889C595.677 321.389 595.677 321.389 595.676 321.389C595.676 321.39 595.676 321.39 595.676 321.39C595.675 321.391 595.674 321.391 595.673 321.392C595.671 321.394 595.668 321.397 595.664 321.401C595.656 321.408 595.644 321.418 595.628 321.432C595.596 321.46 595.55 321.502 595.489 321.556C595.366 321.665 595.186 321.825 594.952 322.034C594.484 322.453 593.802 323.067 592.942 323.849C591.223 325.414 588.79 327.657 585.935 330.37C580.228 335.791 572.811 343.108 566.013 350.662L568.986 353.338C575.688 345.892 583.022 338.654 588.69 333.27C591.521 330.58 593.933 328.357 595.635 326.807C596.486 326.033 597.16 325.427 597.62 325.015C597.85 324.809 598.026 324.652 598.145 324.547C598.204 324.494 598.249 324.454 598.279 324.428C598.294 324.415 598.305 324.405 598.312 324.398C598.316 324.395 598.318 324.393 598.32 324.391C598.321 324.39 598.322 324.39 598.322 324.389C598.322 324.389 598.322 324.389 598.323 324.389C598.323 324.389 598.323 324.389 597 322.889ZM566.013 350.662C552.655 365.505 545.907 368.922 534.743 377.944L537.257 381.056C548.092 372.299 555.345 368.495 568.986 353.338L566.013 350.662ZM534.743 377.944C529.199 382.424 522.541 388.301 517.285 393.043C514.653 395.417 512.367 397.512 510.738 399.014C509.923 399.765 509.273 400.368 508.826 400.784C508.602 400.991 508.429 401.152 508.312 401.261C508.254 401.316 508.209 401.358 508.179 401.386C508.164 401.4 508.153 401.41 508.145 401.418C508.141 401.421 508.138 401.424 508.136 401.426C508.135 401.427 508.135 401.427 508.134 401.428C508.134 401.428 508.134 401.428 508.133 401.428C508.133 401.429 508.133 401.429 509.5 402.889C510.866 404.35 510.866 404.35 510.866 404.35C510.866 404.35 510.866 404.349 510.866 404.349C510.867 404.349 510.868 404.348 510.868 404.347C510.87 404.346 510.873 404.343 510.877 404.34C510.884 404.333 510.895 404.323 510.91 404.309C510.939 404.282 510.983 404.241 511.04 404.187C511.156 404.079 511.327 403.92 511.549 403.714C511.992 403.302 512.639 402.702 513.449 401.955C515.07 400.461 517.346 398.375 519.964 396.013C525.208 391.282 531.801 385.465 537.257 381.056L534.743 377.944ZM508.188 401.379L489.188 417.879L491.811 420.899L510.811 404.399L508.188 401.379ZM488.848 418.261L474.848 438.761L478.151 441.017L492.151 420.517L488.848 418.261ZM453 177.889C453 176.268 452.813 175 452.74 174.202C452.665 173.384 452.699 173.02 452.853 172.641L449.146 171.137C448.629 172.412 448.664 173.548 448.756 174.566C448.851 175.605 449 176.511 449 177.889H453ZM452.853 172.641C453.408 171.272 453.676 169.661 453.939 168.484C454.228 167.191 454.557 166.105 455.18 165.152C456.329 163.397 458.951 161.421 466.639 160.884L466.36 156.894C458.178 157.465 453.995 159.658 451.833 162.962C450.802 164.537 450.35 166.203 450.035 167.611C449.695 169.135 449.536 170.176 449.146 171.137L452.853 172.641Z" fill="black"/>
<path d="M402.5 371.5C405.3 366.3 406.667 351.333 407 346.5C423 345.273 456.9 344.356 464.5 334.5C472.1 324.644 477.333 310.727 479 305H491.5L518 314H496C482 314 486 313 470.5 331.5C458.1 346.3 459.333 361 461.5 366.5V371.5L455 366.5L457.5 359V346.5C453.167 347 443.3 348.5 438.5 350.5C434.057 352.351 434.412 368.342 435.283 377.847C435.399 378.739 435.469 379.465 435.5 380C435.426 379.331 435.353 378.61 435.283 377.847C434.783 374.016 433.42 367.111 430.5 359C426 346.5 421 350.5 413.5 350.5C406 350.5 413.5 379 407 375C400.5 371 405 376.5 399.5 396.5C399 388 399 378 402.5 371.5Z" fill="black"/>
<path d="M185 273.889C197 282.289 208.667 265.056 213 255.389L247.5 218.889L242.5 176.389C228 181.556 196.2 194.589 185 205.389C171 218.889 170 263.389 185 273.889Z" fill="#FED600"/>
<path d="M213 255.389L211.547 254.015L211.314 254.262L211.175 254.571L213 255.389ZM185 273.889L186.147 272.251L185 273.889ZM185 205.389L183.612 203.949V203.949L185 205.389ZM242.5 176.389L244.486 176.155L244.193 173.663L241.829 174.505L242.5 176.389ZM247.5 218.889L248.954 220.263L249.596 219.584L249.486 218.655L247.5 218.889ZM211.175 254.571C209.07 259.267 205.21 265.718 200.536 269.928C198.206 272.028 195.8 273.455 193.426 273.943C191.131 274.414 188.71 274.045 186.147 272.251L183.853 275.528C187.291 277.934 190.828 278.56 194.231 277.861C197.554 277.178 200.586 275.267 203.214 272.9C208.457 268.177 212.597 261.178 214.825 256.207L211.175 254.571ZM186.147 272.251C182.922 269.993 180.353 265.735 178.615 260.068C176.892 254.448 176.064 247.69 176.125 240.782C176.186 233.878 177.134 226.908 178.904 220.874C180.684 214.803 183.241 209.864 186.388 206.829L183.612 203.949C179.759 207.664 176.941 213.35 175.065 219.748C173.178 226.183 172.189 233.525 172.125 240.746C172.061 247.963 172.921 255.143 174.791 261.241C176.647 267.293 179.578 272.535 183.853 275.528L186.147 272.251ZM186.388 206.829C191.723 201.685 202.19 195.846 213.364 190.586C224.458 185.364 235.972 180.838 243.171 178.273L241.829 174.505C234.528 177.107 222.892 181.681 211.661 186.967C200.51 192.216 189.477 198.294 183.612 203.949L186.388 206.829ZM240.514 176.623L245.514 219.123L249.486 218.655L244.486 176.155L240.514 176.623ZM246.047 217.515L211.547 254.015L214.454 256.763L248.954 220.263L246.047 217.515Z" fill="black"/>
<path d="M229.5 341.889C243.5 343.889 250 328.889 253 313.889L281.5 237.389L387 161.889L367 146.889L320 141.389C310.167 142.556 284.7 146.189 261.5 151.389C232.5 157.889 236.5 170.389 218 175.389C203.2 179.389 200.833 189.389 201.5 193.889L196.5 258.389C200.827 273.458 204.5 302.389 210.206 303.889C212 311.389 213.338 316.193 214.5 322.389C216 330.389 221.1 342.289 229.5 341.889Z" fill="#FED600"/>
<path d="M253 313.889L251.126 313.191L251.07 313.34L251.039 313.497L253 313.889ZM229.5 341.889L229.783 339.909L229.595 339.882L229.405 339.891L229.5 341.889ZM214.5 322.389L216.466 322.021L214.5 322.389ZM196.5 258.389L194.506 258.235L194.478 258.594L194.578 258.941L196.5 258.389ZM201.5 193.889L203.494 194.044L203.511 193.819L203.478 193.596L201.5 193.889ZM218 175.389L218.522 177.32L218 175.389ZM261.5 151.389L261.937 153.341L261.5 151.389ZM320 141.389L320.232 139.403L319.998 139.375L319.764 139.403L320 141.389ZM367 146.889L368.2 145.289L367.768 144.965L367.232 144.903L367 146.889ZM387 161.889L388.164 163.516L390.384 161.927L388.2 160.289L387 161.889ZM281.5 237.389L280.336 235.763L279.839 236.118L279.626 236.691L281.5 237.389ZM210.206 303.889L212.151 303.424L211.873 302.259L210.715 301.955L210.206 303.889ZM251.039 313.497C249.557 320.906 247.248 328.084 243.735 333.12C240.288 338.06 235.837 340.774 229.783 339.909L229.217 343.869C237.163 345.004 242.962 341.219 247.015 335.409C251.002 329.695 253.443 321.872 254.961 314.281L251.039 313.497ZM229.405 339.891C226.289 340.04 223.476 337.927 221.097 334.211C218.758 330.557 217.182 325.841 216.466 322.021L212.534 322.758C213.318 326.938 215.042 332.172 217.728 336.367C220.374 340.501 224.311 344.139 229.595 343.887L229.405 339.891ZM198.494 258.544L203.494 194.044L199.506 193.735L194.506 258.235L198.494 258.544ZM203.478 193.596C202.963 190.117 204.684 181.06 218.522 177.32L217.478 173.458C201.716 177.719 198.704 188.662 199.522 194.182L203.478 193.596ZM218.522 177.32C228.337 174.667 232.328 169.895 237.17 165.421C241.877 161.071 247.817 156.506 261.937 153.341L261.063 149.438C246.183 152.773 239.623 157.707 234.455 162.483C229.422 167.133 226.163 171.111 217.478 173.458L218.522 177.32ZM261.937 153.341C285.051 148.16 310.446 144.537 320.236 143.375L319.764 139.403C309.887 140.575 284.349 144.218 261.063 149.438L261.937 153.341ZM319.768 143.376L366.768 148.876L367.232 144.903L320.232 139.403L319.768 143.376ZM365.8 148.489L385.8 163.489L388.2 160.289L368.2 145.289L365.8 148.489ZM385.836 160.263L280.336 235.763L282.664 239.016L388.164 163.516L385.836 160.263ZM279.626 236.691L251.126 313.191L254.874 314.587L283.374 238.087L279.626 236.691ZM216.466 322.021C215.292 315.76 213.927 310.847 212.151 303.424L208.261 304.354C210.073 311.931 211.385 316.626 212.534 322.758L216.466 322.021ZM210.715 301.955C210.73 301.959 210.649 301.942 210.474 301.79C210.299 301.636 210.074 301.385 209.811 300.998C209.279 300.215 208.715 299.064 208.132 297.548C206.971 294.526 205.867 290.412 204.783 285.773C202.652 276.644 200.599 265.42 198.422 257.837L194.578 258.941C196.727 266.428 198.675 277.203 200.888 286.682C201.977 291.347 203.132 295.688 204.399 298.984C205.031 300.627 205.723 302.099 206.502 303.245C207.243 304.337 208.275 305.449 209.698 305.823L210.715 301.955Z" fill="black"/>
<path d="M358 118.889L394 149.389L397.5 152.889L377.5 190.389H340.5L267.5 223.389C272.5 246.056 284.1 298.189 290.5 325.389C298.5 359.389 285 362.889 263.5 373.889C254 379.889 253.5 345.889 249.5 335.889C245.5 325.889 227.5 282.389 222.5 270.389C217.5 258.389 219 236.389 213.5 221.889C208 207.389 219 189.389 232 179.889C245 170.389 284 149.389 315.5 124.889C340.7 105.289 354.333 112.722 358 118.889Z" fill="#FED600"/>
<path d="M394 149.389L395.414 147.975L395.356 147.917L395.293 147.863L394 149.389ZM358 118.889L356.281 119.911L356.452 120.199L356.707 120.415L358 118.889ZM315.5 124.889L314.272 123.31L315.5 124.889ZM232 179.889L230.82 178.274L232 179.889ZM213.5 221.889L215.37 221.18L213.5 221.889ZM263.5 373.889L262.589 372.109L262.509 372.15L262.432 372.198L263.5 373.889ZM290.5 325.389L292.447 324.931L290.5 325.389ZM267.5 223.389L266.676 221.567L265.197 222.235L265.547 223.82L267.5 223.389ZM340.5 190.389V188.389H340.069L339.676 188.567L340.5 190.389ZM377.5 190.389V192.389H378.7L379.265 191.33L377.5 190.389ZM397.5 152.889L399.265 153.83L399.962 152.523L398.914 151.475L397.5 152.889ZM395.293 147.863L359.293 117.363L356.707 120.415L392.707 150.915L395.293 147.863ZM359.719 117.867C357.522 114.172 352.555 110.423 344.876 110.227C337.231 110.032 327.079 113.349 314.272 123.31L316.728 126.468C329.121 116.829 338.386 114.063 344.774 114.226C351.129 114.388 354.811 117.44 356.281 119.911L359.719 117.867ZM314.272 123.31C298.608 135.494 281.056 146.824 265.758 156.315C250.543 165.754 237.401 173.465 230.82 178.274L233.18 181.504C239.599 176.813 252.457 169.274 267.867 159.714C283.194 150.204 300.892 138.785 316.728 126.468L314.272 123.31ZM230.82 178.274C224.077 183.202 217.858 190.322 214.018 198.132C210.184 205.928 208.616 214.653 211.63 222.598L215.37 221.18C212.884 214.625 214.066 207.1 217.607 199.897C221.142 192.706 226.923 186.076 233.18 181.504L230.82 178.274ZM211.63 222.598C214.271 229.56 215.254 238.408 216.199 247.288C217.124 255.983 218.016 264.827 220.654 271.158L224.346 269.62C221.984 263.951 221.126 255.796 220.176 246.865C219.246 238.12 218.229 228.718 215.37 221.18L211.63 222.598ZM220.654 271.158C225.655 283.162 243.649 326.648 247.643 336.632L251.357 335.146C247.351 325.131 229.345 281.617 224.346 269.62L220.654 271.158ZM247.643 336.632C248.549 338.897 249.301 342.676 250.067 347.221C250.814 351.66 251.562 356.743 252.477 361.284C253.381 365.774 254.508 370.074 256.136 372.89C256.948 374.295 258.049 375.624 259.587 376.244C261.264 376.92 262.99 376.577 264.568 375.58L262.432 372.198C261.635 372.701 261.267 372.608 261.082 372.534C260.76 372.404 260.232 371.983 259.599 370.888C258.336 368.704 257.306 365.004 256.398 360.494C255.5 356.035 254.779 351.118 254.011 346.557C253.261 342.102 252.451 337.882 251.357 335.146L247.643 336.632ZM264.411 375.67C269.694 372.967 274.693 370.623 278.915 368.183C283.172 365.723 286.879 363.038 289.64 359.493C295.272 352.262 296.49 342.113 292.447 324.931L288.553 325.847C292.51 342.665 290.978 351.266 286.485 357.035C284.183 359.99 280.985 362.367 276.913 364.72C272.807 367.093 268.056 369.312 262.589 372.109L264.411 375.67ZM292.447 324.931C286.05 297.747 274.453 245.626 269.453 222.958L265.547 223.82C270.547 246.485 282.149 298.632 288.553 325.847L292.447 324.931ZM268.324 225.212L341.324 192.212L339.676 188.567L266.676 221.567L268.324 225.212ZM340.5 192.389H377.5V188.389H340.5V192.389ZM379.265 191.33L399.265 153.83L395.735 151.948L375.735 189.448L379.265 191.33ZM398.914 151.475L395.414 147.975L392.586 150.803L396.086 154.303L398.914 151.475Z" fill="black"/>
<path fill-rule="evenodd" clip-rule="evenodd" d="M416 220.389L387.5 206.889L359 202.389L321.5 228.889L314 246.889V272.889L321.5 339.889C317.5 349.722 307.4 367.689 299 360.889C288.5 352.389 260 290.889 255.5 259.889C254.269 251.411 252.216 243.307 250.291 235.709C245.177 215.528 240.97 198.924 255.5 188.389C271.5 176.789 326.5 140.889 352 124.389C357.5 117.389 371.8 105.489 385 113.889C395.488 120.564 405.775 133.299 414.318 143.876C419.215 149.939 423.539 155.292 427 158.389C434.6 165.189 443.5 174.889 447 178.889C447.228 179.077 447.46 179.268 447.696 179.462C441.551 183.153 443.261 195.639 447.5 205.389C448.749 208.261 450.049 211.548 451.409 214.986C455.496 225.317 460.123 237.012 465.5 242.889L477.479 297.794C456.801 278.644 429.67 242.141 416 220.389ZM594.711 325.495C659.05 335.767 741.522 347.5 798.5 347.5C824.5 300.5 831 247 818.5 200C732.247 209.06 614.579 214.91 552.084 217.443C569.282 236.181 593.368 261.401 599 263.389C607.5 266.389 611.879 281.585 610 292.389C608.625 300.298 602.835 310.624 598.648 318.091C596.923 321.167 595.47 323.759 594.711 325.495Z" fill="#FED600"/>
<path d="M819 200C737.33 208.579 626.995 214.279 562.5 217.011M797 349.5C739.959 349.5 658.87 335.741 594.5 325.462C600.167 318.474 611.4 301.1 611 287.5C610.5 270.5 601.5 265 598 263.5M498 310.389C480.8 310.389 435.167 250.889 416 220.389L387.5 206.889L359 202.389L321.5 228.889L314 246.889V272.889L321.5 339.889C317.5 349.722 307.4 367.689 299 360.889C288.5 352.389 260 290.889 255.5 259.889C251 228.889 235.5 202.889 255.5 188.389C271.5 176.789 326.5 140.889 352 124.389C357.5 117.389 371.8 105.489 385 113.889C401.5 124.389 417.5 149.889 427 158.389C434.6 165.189 443.5 174.889 447 178.889C444 179.926 439.3 184.8 444.5 196C449.7 207.2 453.333 216.926 454.5 220.389" stroke="black" stroke-width="4"/>
<path d="M314.5 273.111V276.5C382.5 263.5 420 291.5 469 298C518 304.5 542 297 561.5 291.5C581 286 601 269.5 597.5 250C594 230.5 582.5 226.5 567.5 219.5C552.5 212.5 499.5 216 475 219.5C455.4 222.3 426.5 222.333 414.5 222C412.667 220.333 405.8 215.6 393 210C377 203 370.5 206.5 356.5 204C347.5 212 334.5 216.111 316.5 232.611C314.5 245.111 313 256.111 314.5 273.111Z" fill="#DC0000" stroke="black" stroke-width="4"/>
<path d="M405.5 204.5C405.5 210.5 411 217.167 416 219.5C407.333 215.5 393.1 206.7 387.5 205.5C384.321 204.819 379.697 204.55 375.457 204.46C375.308 204.486 375.155 204.5 375 204.5C374.633 204.5 374.249 204.477 373.852 204.433C369.436 204.381 365.732 204.5 365 204.5C363.5 204.5 361 204.5 353 207C345 209.5 334 219 323 228.5C314.2 236.1 315 261.667 316.5 273.5L311.5 276.5V268.5L314 259.5V236.5C314 227.5 309 219 302.5 209C307.5 209 311 219 316.5 228.5C318.9 226.9 333.5 214.833 340.5 209L352 204.5L361 196V199.5C363.597 201.028 369.498 203.955 373.852 204.433C374.378 204.439 374.915 204.448 375.457 204.46C379.546 203.731 381.518 193.306 382 188V199.5C383.5 201.167 387.1 204.5 389.5 204.5C391.9 204.5 398.167 201.167 401 199.5V188C402.5 191 405.5 198.5 405.5 204.5Z" fill="black"/>
<path d="M563 225C551.5 225 547.5 227.111 546 231.611C545.5 237.611 547 272.611 551.5 277.611C555.1 281.611 565 280.611 569.5 279.611" stroke="black" stroke-width="4"/>
<path d="M427.5 289.071C449.9 296.271 473.833 299.404 483 300.071V302.571C481.667 304.404 478.7 308.571 477.5 310.571C476 313.071 466.5 334.071 457 340.571C447.5 347.071 423 347.071 411.5 346.571C400 346.071 375.5 348.071 348 342.571C326 338.171 307.919 328.047 301.629 323.536C298.801 322.599 296.161 321.567 294.5 320.571C287 312.571 290 300.071 299.5 289.071C301 284.571 303.5 281.571 312.5 277.571C321.5 273.571 364.5 272.071 375.5 273.571C386.5 275.071 399.5 280.071 427.5 289.071Z" fill="#FED600"/>
<path d="M483 300.071H485V298.211L483.145 298.076L483 300.071ZM427.5 289.071L428.112 287.167L427.5 289.071ZM299.5 289.071L301.014 290.378L301.039 290.348L301.063 290.318L299.5 289.071ZM294.5 320.571L293.041 321.938L293.232 322.142L293.471 322.286L294.5 320.571ZM312.5 326.571L313.088 324.659L313.02 324.638L312.95 324.622L312.5 326.571ZM336 329.571L334.8 327.971L336 329.571ZM326.728 289.119L326.309 291.075L326.309 291.075L326.728 289.119ZM326.5 289.071L326.081 291.026L326.081 291.026L326.5 289.071ZM301.629 323.536L302.258 321.637H302.258L301.629 323.536ZM348 342.571L347.608 344.532L348 342.571ZM477.5 310.571L479.215 311.6V311.6L477.5 310.571ZM483 302.571L484.617 303.747L485 303.221V302.571H483ZM483.145 298.076C474.092 297.417 450.323 294.306 428.112 287.167L426.888 290.975C449.477 298.235 473.574 301.39 482.855 302.065L483.145 298.076ZM428.112 287.167C414.185 282.69 403.831 279.157 395.727 276.601C387.584 274.033 381.448 272.363 375.77 271.589L375.23 275.552C380.552 276.278 386.416 277.858 394.523 280.415C402.669 282.984 412.815 286.451 426.888 290.975L428.112 287.167ZM375.77 271.589C370.062 270.811 356.39 270.824 343.146 271.511C336.492 271.856 329.879 272.375 324.347 273.062C318.911 273.738 314.248 274.605 311.688 275.743L313.312 279.398C315.252 278.536 319.339 277.716 324.84 277.032C330.246 276.36 336.758 275.848 343.354 275.505C356.61 274.818 369.938 274.831 375.23 275.552L375.77 271.589ZM311.688 275.743C307.109 277.778 303.998 279.636 301.821 281.673C299.584 283.765 298.43 285.955 297.603 288.438L301.397 289.703C302.07 287.687 302.916 286.126 304.554 284.594C306.252 283.005 308.891 281.363 313.312 279.398L311.688 275.743ZM297.986 287.763C293.079 293.446 289.739 299.637 288.657 305.588C287.565 311.593 288.782 317.395 293.041 321.938L295.959 319.203C292.718 315.746 291.685 311.298 292.593 306.303C293.511 301.254 296.421 295.696 301.014 290.378L297.986 287.763ZM311.912 328.482C315.216 329.499 320.378 330.873 325.149 331.692C327.529 332.1 329.878 332.382 331.879 332.396C332.879 332.402 333.846 332.343 334.713 332.177C335.557 332.016 336.457 331.728 337.2 331.171L334.8 327.971C334.743 328.013 334.512 328.144 333.963 328.248C333.438 328.348 332.751 328.401 331.906 328.396C330.216 328.384 328.108 328.141 325.826 327.749C321.272 326.968 316.284 325.642 313.088 324.659L311.912 328.482ZM337.2 331.171C341.734 327.77 347.5 319.661 347.5 306.071H343.5C343.5 318.48 338.266 325.371 334.8 327.971L337.2 331.171ZM347.5 306.071C347.5 299.408 346.234 295.094 342.508 292.265C340.746 290.927 338.567 290.029 336.066 289.283C333.566 288.538 330.578 287.899 327.147 287.164L326.309 291.075C329.791 291.821 332.607 292.426 334.923 293.116C337.238 293.807 338.887 294.537 340.089 295.45C342.293 297.124 343.5 299.804 343.5 306.071H347.5ZM327.147 287.164L326.919 287.115L326.081 291.026L326.309 291.075L327.147 287.164ZM326.919 287.115C319.843 285.599 313.571 284.788 308.695 284.771C306.261 284.762 304.099 284.951 302.328 285.385C300.609 285.806 298.969 286.529 297.937 287.823L301.063 290.318C301.281 290.046 301.891 289.611 303.281 289.27C304.62 288.942 306.426 288.763 308.68 288.771C313.179 288.787 319.157 289.542 326.081 291.026L326.919 287.115ZM293.471 322.286C295.337 323.405 298.159 324.493 301 325.434L302.258 321.637C299.443 320.705 296.986 319.73 295.529 318.856L293.471 322.286ZM301 325.434C305.055 326.777 309.474 327.925 312.05 328.519L312.95 324.622C310.459 324.047 306.166 322.931 302.258 321.637L301 325.434ZM300.464 325.161C306.95 329.813 325.29 340.068 347.608 344.532L348.392 340.609C326.71 336.273 308.889 326.281 302.795 321.911L300.464 325.161ZM347.608 344.532C375.302 350.071 400.236 348.083 411.413 348.569L411.587 344.572C399.764 344.058 375.698 346.071 348.392 340.609L347.608 344.532ZM411.413 348.569C417.21 348.821 426.303 348.948 435.171 348.188C439.604 347.808 444.022 347.203 447.963 346.266C451.875 345.336 455.461 344.047 458.129 342.221L455.871 338.92C453.789 340.344 450.75 341.492 447.037 342.375C443.353 343.251 439.146 343.833 434.829 344.203C426.197 344.943 417.29 344.82 411.587 344.572L411.413 348.569ZM458.129 342.221C463.29 338.69 468.234 331.442 471.974 325.085C473.875 321.852 475.519 318.754 476.777 316.316C478.077 313.797 478.883 312.152 479.215 311.6L475.785 309.542C475.367 310.239 474.423 312.157 473.223 314.481C471.981 316.888 470.375 319.914 468.526 323.057C464.766 329.449 460.21 335.951 455.871 338.92L458.129 342.221ZM479.215 311.6C480.361 309.689 483.272 305.596 484.617 303.747L481.383 301.394C480.061 303.211 477.039 307.452 475.785 309.542L479.215 311.6ZM485 302.571V300.071H481V302.571H485Z" fill="black"/>
<path d="M295.5 328.5C291.1 324.5 284.667 325.5 282 326.5C286 344 292 350 295.5 356C299 362 300.5 363.5 305 361C309.8 358.2 309.333 349.833 308.5 346C306 341.833 299.9 332.5 295.5 328.5Z" fill="#FED600"/>
<path d="M267 342.5C263.4 336.1 254.5 336.5 250.5 337.5L248.5 340.5L261 373C262 373.833 265 375.3 269 374.5C273 373.7 276.333 367.167 277.5 364C275.5 359.5 270.6 348.9 267 342.5Z" fill="#FED600"/>
<path d="M224.5 307.5C220.9 303.9 215.333 307.333 213 309.5L211.5 314C213.833 322.833 218.8 340.9 220 342.5C221.5 344.5 224.5 346 229.5 344.5C233.5 343.3 237.167 338.333 238.5 336C237.333 332.833 234.7 325.8 233.5 323C232 319.5 229 312 224.5 307.5Z" fill="#FED600"/>
<path d="M193.5 246H186.5L183 249C181 252 180.5 264.5 180.5 268.5C180.5 272.5 181 272.5 186.5 272.5C190.9 272.5 195 269.833 196.5 268.5L195 257.5L193.5 246Z" fill="#FED600"/>
<path d="M282 326.5L281.298 324.627L279.661 325.241L280.05 326.946L282 326.5ZM308.5 346L310.454 345.575L310.384 345.253L310.215 344.971L308.5 346ZM305 361L305.971 362.748L305.99 362.738L306.008 362.728L305 361ZM250.5 337.5L250.015 335.56L249.265 335.747L248.836 336.391L250.5 337.5ZM277.5 364L279.377 364.691L279.657 363.93L279.328 363.188L277.5 364ZM261 373L259.133 373.718L259.32 374.203L259.72 374.536L261 373ZM248.5 340.5L246.836 339.391L246.262 340.252L246.633 341.218L248.5 340.5ZM213 309.5L211.639 308.034L211.264 308.382L211.103 308.868L213 309.5ZM233.5 323L231.662 323.788L233.5 323ZM238.5 336L240.236 336.992L240.699 336.183L240.377 335.309L238.5 336ZM229.5 344.5L228.925 342.584H228.925L229.5 344.5ZM220 342.5L221.6 341.3V341.3L220 342.5ZM211.5 314L209.603 313.368L209.414 313.934L209.566 314.511L211.5 314ZM186.5 246V244H185.76L185.198 244.481L186.5 246ZM193.5 246L195.483 245.741L195.256 244H193.5V246ZM195 257.5L193.017 257.759L193.018 257.77L195 257.5ZM196.5 268.5L197.829 269.995L198.626 269.286L198.482 268.23L196.5 268.5ZM183 249L181.698 247.481L181.489 247.661L181.336 247.891L183 249ZM282.702 328.373C283.801 327.961 285.804 327.512 288 327.623C290.179 327.732 292.394 328.379 294.155 329.98L296.845 327.02C294.206 324.621 291.004 323.768 288.2 323.628C285.413 323.488 282.865 324.04 281.298 324.627L282.702 328.373ZM294.155 329.98C296.184 331.825 298.705 335.006 301.083 338.347C303.437 341.654 305.559 344.985 306.785 347.029L310.215 344.971C308.941 342.848 306.763 339.429 304.342 336.028C301.945 332.661 299.216 329.175 296.845 327.02L294.155 329.98ZM306.546 346.425C306.926 348.174 307.222 350.988 306.879 353.63C306.527 356.342 305.582 358.345 303.992 359.272L306.008 362.728C309.218 360.855 310.44 357.275 310.846 354.145C311.261 350.945 310.907 347.659 310.454 345.575L306.546 346.425ZM304.029 359.252C301.932 360.416 301.305 360.21 300.892 359.966C300.539 359.757 300.071 359.329 299.433 358.47C298.802 357.622 298.099 356.487 297.228 354.992L293.772 357.008C294.651 358.513 295.448 359.816 296.223 360.858C296.991 361.89 297.836 362.806 298.858 363.409C301.195 364.79 303.568 364.084 305.971 362.748L304.029 359.252ZM297.228 354.992C293.589 348.754 287.86 343.163 283.95 326.054L280.05 326.946C284.14 344.837 290.411 351.246 293.772 357.008L297.228 354.992ZM250.985 339.44C252.767 338.995 255.701 338.678 258.544 339.193C261.369 339.705 263.849 340.979 265.257 343.481L268.743 341.52C266.551 337.622 262.781 335.895 259.256 335.257C255.749 334.622 252.233 335.005 250.015 335.56L250.985 339.44ZM265.257 343.481C268.807 349.792 273.675 360.317 275.672 364.812L279.328 363.188C277.325 358.683 272.393 348.008 268.743 341.52L265.257 343.481ZM275.623 363.309C275.085 364.769 274.033 367.035 272.67 368.996C271.231 371.068 269.787 372.303 268.608 372.539L269.392 376.461C272.213 375.897 274.436 373.465 275.955 371.279C277.551 368.982 278.748 366.398 279.377 364.691L275.623 363.309ZM268.608 372.539C265.243 373.212 262.85 371.938 262.28 371.464L259.72 374.536C261.15 375.729 264.757 377.388 269.392 376.461L268.608 372.539ZM262.867 372.282L250.367 339.782L246.633 341.218L259.133 373.718L262.867 372.282ZM250.164 341.609L252.164 338.609L248.836 336.391L246.836 339.391L250.164 341.609ZM214.361 310.966C215.384 310.016 217.11 308.807 218.882 308.243C220.617 307.691 222.013 307.842 223.086 308.914L225.914 306.086C223.387 303.558 220.199 303.626 217.668 304.432C215.174 305.226 212.95 306.817 211.639 308.034L214.361 310.966ZM223.086 308.914C227.252 313.08 230.104 320.153 231.662 323.788L235.338 322.212C233.896 318.847 230.748 310.92 225.914 306.086L223.086 308.914ZM231.662 323.788C232.837 326.53 235.451 333.509 236.623 336.691L240.377 335.309C239.216 332.157 236.563 325.07 235.338 322.212L231.662 323.788ZM236.764 335.008C236.167 336.052 235.008 337.747 233.543 339.305C232.045 340.898 230.422 342.135 228.925 342.584L230.075 346.416C232.578 345.665 234.788 343.819 236.457 342.045C238.158 340.236 239.5 338.281 240.236 336.992L236.764 335.008ZM228.925 342.584C226.706 343.25 225.1 343.201 223.977 342.887C222.864 342.575 222.102 341.97 221.6 341.3L218.4 343.7C219.398 345.03 220.886 346.175 222.898 346.738C224.9 347.299 227.294 347.25 230.075 346.416L228.925 342.584ZM221.6 341.3C221.647 341.363 221.529 341.18 221.253 340.461C221.016 339.843 220.726 339.009 220.395 337.994C219.735 335.969 218.936 333.31 218.096 330.407C216.419 324.606 214.598 317.897 213.434 313.489L209.566 314.511C210.735 318.937 212.565 325.678 214.254 331.518C215.098 334.436 215.911 337.146 216.592 339.234C216.932 340.276 217.246 341.185 217.519 341.896C217.753 342.505 218.053 343.237 218.4 343.7L221.6 341.3ZM213.397 314.632L214.897 310.132L211.103 308.868L209.603 313.368L213.397 314.632ZM186.5 248H193.5V244H186.5V248ZM191.517 246.259L193.017 257.759L196.983 257.241L195.483 245.741L191.517 246.259ZM193.018 257.77L194.518 268.77L198.482 268.23L196.982 257.23L193.018 257.77ZM195.171 267.005C194.567 267.543 193.327 268.438 191.733 269.192C190.138 269.946 188.311 270.5 186.5 270.5V274.5C189.089 274.5 191.512 273.721 193.442 272.808C195.373 271.895 196.933 270.791 197.829 269.995L195.171 267.005ZM186.5 270.5C185.093 270.5 184.121 270.499 183.394 270.443C182.629 270.385 182.462 270.282 182.486 270.297C182.654 270.4 182.658 270.555 182.611 270.353C182.538 270.047 182.5 269.517 182.5 268.5H178.5C178.5 269.483 178.524 270.453 178.718 271.272C178.935 272.195 179.409 273.1 180.389 273.703C181.226 274.218 182.214 274.365 183.09 274.432C184.004 274.501 185.157 274.5 186.5 274.5V270.5ZM182.5 268.5C182.5 266.554 182.623 262.492 182.991 258.562C183.176 256.595 183.418 254.701 183.727 253.139C184.055 251.483 184.406 250.496 184.664 250.109L181.336 247.891C180.594 249.004 180.132 250.704 179.804 252.361C179.457 254.111 179.199 256.155 179.009 258.188C178.627 262.258 178.5 266.446 178.5 268.5H182.5ZM184.302 250.519L187.802 247.519L185.198 244.481L181.698 247.481L184.302 250.519Z" fill="black"/>
</g>
<defs>
<clipPath id="clip0_15_519">
<rect width="824" height="647" fill="white" transform="translate(0 -12)"/>
</clipPath>
</defs>
</svg>
