<?xml version="1.0" standalone="no"?>
<!DOCTYPE svg PUBLIC "-//W3C//DTD SVG 20010904//EN"
 "http://www.w3.org/TR/2001/REC-SVG-20010904/DTD/svg10.dtd">
<svg version="1.0" xmlns="http://www.w3.org/2000/svg"
 width="831.000000pt" height="831.000000pt" viewBox="0 0 831.000000 831.000000"
 preserveAspectRatio="xMidYMid meet">
<metadata>
Created by potrace 1.14, written by Peter Selinger 2001-2017
</metadata>
<g transform="translate(0.000000,831.000000) scale(0.100000,-0.100000)"
fill="#000000" stroke="none">
<path d="M2549 7276 c-2 -3 -71 -6 -154 -7 -82 -1 -167 -6 -187 -11 -21 -4
-55 -10 -75 -12 -50 -5 -122 -22 -208 -48 -38 -12 -78 -23 -87 -25 -9 -1 -42
-14 -73 -27 -30 -14 -58 -25 -61 -25 -22 1 -340 -174 -364 -201 -3 -3 -21 -17
-40 -30 -44 -31 -68 -51 -143 -120 -82 -75 -95 -88 -147 -150 -25 -29 -49 -58
-55 -64 -36 -40 -104 -140 -172 -251 -29 -47 -112 -224 -127 -270 -9 -27 -19
-57 -23 -65 -7 -17 -6 -13 -31 -110 -22 -83 -39 -164 -47 -225 -3 -22 -8 -60
-11 -85 -7 -50 -7 -295 -1 -350 7 -54 27 -194 32 -216 11 -53 47 -183 58 -209
6 -16 12 -32 12 -35 4 -36 130 -302 168 -354 4 -6 27 -41 51 -78 83 -126 184
-232 751 -793 312 -308 699 -690 860 -850 161 -159 548 -542 860 -850 312
-308 616 -609 676 -668 l110 -108 232 230 c128 127 367 363 532 526 1736 1715
2344 2320 2394 2380 100 122 273 418 297 510 1 6 14 41 27 78 14 37 26 70 26
72 1 3 1 6 2 8 0 1 2 9 4 17 2 8 10 44 19 80 9 36 19 83 21 105 3 22 8 54 11
70 17 100 23 314 12 410 -4 33 -10 85 -13 115 -4 30 -10 71 -15 90 -5 19 -11
46 -14 60 -15 77 -23 105 -68 230 -42 116 -148 330 -184 371 -8 8 -14 19 -14
23 0 4 -6 13 -12 20 -7 8 -20 24 -28 36 -13 20 -41 57 -62 85 -78 99 -302 315
-327 315 -5 0 -11 4 -13 8 -4 12 -165 122 -177 122 -5 0 -11 3 -13 8 -5 12
-266 138 -306 147 -22 6 -109 34 -146 48 -17 6 -37 12 -45 13 -47 7 -98 16
-111 21 -23 9 -48 13 -175 28 -42 6 -333 6 -375 1 -19 -3 -57 -7 -85 -10 -27
-3 -59 -8 -70 -10 -11 -2 -55 -12 -97 -21 -43 -8 -96 -22 -118 -30 -22 -8 -40
-12 -40 -8 0 3 -6 0 -13 -6 -8 -6 -22 -12 -33 -14 -10 -2 -30 -9 -44 -17 -14
-7 -25 -12 -25 -11 0 2 -18 -4 -39 -13 -22 -9 -50 -19 -63 -22 -13 -4 -23 -10
-23 -15 0 -5 -7 -9 -16 -9 -9 0 -28 -9 -44 -20 -15 -11 -30 -17 -34 -13 -3 3
-6 1 -6 -5 0 -7 -5 -12 -10 -12 -13 0 -144 -81 -148 -92 -2 -4 -8 -8 -13 -8
-5 0 -17 -6 -26 -14 -10 -8 -52 -41 -93 -74 -41 -33 -156 -139 -255 -236 -98
-97 -182 -176 -186 -176 -3 0 -80 73 -171 163 -202 199 -264 255 -328 297 -13
8 -35 24 -49 36 -69 55 -325 194 -358 194 -7 0 -13 5 -13 12 0 6 -3 9 -6 6 -3
-3 -33 5 -66 18 -65 25 -237 75 -278 79 -14 2 -49 8 -78 14 -29 6 -88 14 -130
17 -42 3 -80 8 -83 10 -3 2 -8 2 -10 0z m-628 -493 c13 -16 12 -17 -3 -4 -17
13 -22 21 -14 21 2 0 10 -8 17 -17z m814 7 c3 -6 -1 -7 -9 -4 -18 7 -21 14 -7
14 6 0 13 -4 16 -10z m-809 -86 c1 -9 0 -13 -4 -10 -3 4 -7 14 -8 22 -1 9 0
13 4 10 3 -4 7 -14 8 -22z m-471 -714 c-3 -5 -12 -10 -18 -10 -7 0 -6 4 3 10
19 12 23 12 15 0z m5120 -160 c3 -6 -1 -7 -9 -4 -18 7 -21 14 -7 14 6 0 13 -4
16 -10z m-1211 -246 c3 -8 2 -12 -4 -9 -6 3 -10 10 -10 16 0 14 7 11 14 -7z
m-4229 -74 c3 -6 -1 -7 -9 -4 -18 7 -21 14 -7 14 6 0 13 -4 16 -10z m6316 -77
c13 -16 12 -17 -3 -4 -10 7 -18 15 -18 17 0 8 8 3 21 -13z m-1356 -322 c-9 -8
-36 -10 -30 -2 2 4 11 8 20 8 8 0 13 -3 10 -6z m-4414 -494 c-10 -9 -11 -8 -5
6 3 10 9 15 12 12 3 -3 0 -11 -7 -18z m4569 -551 c-7 -7 -13 -7 -20 0 -6 6 -3
10 10 10 13 0 16 -4 10 -10z m-2162 -241 c-3 -3 -9 2 -12 12 -6 14 -5 15 5 6
7 -7 10 -15 7 -18z m88 3 c3 -4 -1 -5 -10 -4 -8 1 -18 5 -22 8 -3 4 1 5 10 4
8 -1 18 -5 22 -8z m-1208 -163 c-3 -3 -9 2 -12 12 -6 14 -5 15 5 6 7 -7 10
-15 7 -18z m2962 -69 c0 -2 -7 -7 -16 -10 -8 -3 -12 -2 -9 4 6 10 25 14 25 6z
m-2487 -241 c-3 -9 -8 -14 -10 -11 -3 3 -2 9 2 15 9 16 15 13 8 -4z m691
-1203 c3 -5 -1 -9 -9 -9 -8 0 -15 4 -15 9 0 4 4 8 9 8 6 0 12 -4 15 -8z"/>
</g>
</svg>
